<?xml version="1.0" encoding="UTF-8"?>
<svg width="35px" height="35px" viewBox="0 0 35 35" version="1.1" xmlns="http://www.w3.org/2000/svg" xmlns:xlink="http://www.w3.org/1999/xlink">
    <!-- Generator: Sketch 64 (93537) - https://sketch.com -->
    <title>Group 79</title>
    <desc>Created with Sketch.</desc>
    <g id="app-&amp;_splash" stroke="none" stroke-width="1" fill="none" fill-rule="evenodd">
        <g id="Group-79">
            <circle id="Oval-Copy-9" fill="#D8D8D8" fill-rule="nonzero" cx="17.5" cy="17.5" r="17.5"></circle>
            <g id="ic_suppliers" transform="translate(7.000000, 6.000000)">
                <g id="Oval-+-Rectangle-5-Mask-Copy" transform="translate(0.000000, 3.760204)">
                    <rect id="Rectangle" fill="#ACEBE2" fill-rule="nonzero" x="5.16326531" y="0" width="16.8367347" height="18.2397959" rx="2.80612245"></rect>
                    <rect id="Rectangle-Copy-29" stroke="#000000" stroke-width="1.40306122" x="0.25255102" y="0.701530612" width="21.0459184" height="16.8367347" rx="2.80612245"></rect>
                    <g id="Group" transform="translate(2.357143, 3.627258)" stroke="#000000" stroke-width="1.40306122">
                        <g id="Group-29">
                            <ellipse id="Oval" cx="4.91071429" cy="2.67249756" rx="2.7281746" ry="2.67249756"></ellipse>
                            <path d="M0,12.0930515 L0,11.0240525 C0,8.66248503 1.9543126,6.74805637 4.36507936,6.74805637 L4.36507936,6.74805637 L5.45634921,6.74805637 C7.86711597,6.74805637 9.82142857,8.66248503 9.82142857,11.0240525 L9.82142857,12.0930515" id="Rectangle-5" stroke-linecap="round" stroke-linejoin="round"></path>
                        </g>
                    </g>
                    <g id="Group-Copy" transform="translate(12.178571, 2.806122)" stroke="#000000" stroke-width="1.40306122">
                        <g id="Group-29">
                            <ellipse id="Oval" cx="3.50765306" cy="2.00437318" rx="1.94869615" ry="2.00437318"></ellipse>
                            <path d="M0.037228958,8.12171547 C0.269475097,6.58659374 1.56031237,5.41180758 3.11791383,5.41180758 L3.89739229,5.41180758 C5.61936855,5.41180758 7.01530612,6.84762908 7.01530612,8.61880466 L7.01530612,9.42055393" id="Rectangle-5" stroke-linecap="round" stroke-linejoin="round"></path>
                        </g>
                    </g>
                </g>
                <path d="M5.86479592,4.46173469 L15.6862245,4.46173469 L15.6862245,0.954081633 C15.6862245,0.566636974 15.3721386,0.25255102 14.9846939,0.25255102 L6.56632653,0.25255102 C6.17888188,0.25255102 5.86479592,0.566636974 5.86479592,0.954081633 L5.86479592,4.46173469 Z" id="Rectangle" stroke="#000000" stroke-width="1.40306122"></path>
            </g>
        </g>
    </g>
</svg>